<?xml version="1.0" encoding="UTF-8" standalone="no"?>
<!-- Created with Inkscape (http://www.inkscape.org/) -->

<svg
   xmlns:dc="http://purl.org/dc/elements/1.1/"
   xmlns:cc="http://creativecommons.org/ns#"
   xmlns:rdf="http://www.w3.org/1999/02/22-rdf-syntax-ns#"
   xmlns:svg="http://www.w3.org/2000/svg"
   xmlns="http://www.w3.org/2000/svg"
   xmlns:sodipodi="http://sodipodi.sourceforge.net/DTD/sodipodi-0.dtd"
   xmlns:inkscape="http://www.inkscape.org/namespaces/inkscape"
   width="640"
   height="480"
   id="svg2"
   version="1.1"
   inkscape:version="0.48.2 r9819"
   sodipodi:docname="title.svg"
   inkscape:export-filename="D:\Users\makoto\Desktop\title.png"
   inkscape:export-xdpi="90"
   inkscape:export-ydpi="90">
  <defs
     id="defs4" />
  <sodipodi:namedview
     id="base"
     pagecolor="#ffffff"
     bordercolor="#666666"
     borderopacity="1.0"
     inkscape:pageopacity="1"
     inkscape:pageshadow="2"
     inkscape:zoom="1.4"
     inkscape:cx="435.86574"
     inkscape:cy="284.40627"
     inkscape:document-units="px"
     inkscape:current-layer="layer1"
     showgrid="false"
     inkscape:window-width="1920"
     inkscape:window-height="1017"
     inkscape:window-x="-8"
     inkscape:window-y="-8"
     inkscape:window-maximized="1" />
  <metadata
     id="metadata7">
    <rdf:RDF>
      <cc:Work
         rdf:about="">
        <dc:format>image/svg+xml</dc:format>
        <dc:type
           rdf:resource="http://purl.org/dc/dcmitype/StillImage" />
      </cc:Work>
    </rdf:RDF>
  </metadata>
  <g
     inkscape:label="レイヤー 1"
     inkscape:groupmode="layer"
     id="layer1"
     transform="translate(0,-572.36218)">
    <g
       style="font-size:46.93520737px;font-style:normal;font-variant:normal;font-weight:normal;font-stretch:normal;line-height:125%;letter-spacing:0px;word-spacing:0px;fill:#000000;fill-opacity:1;stroke:none;font-family:YomogiFont;-inkscape-font-specification:YomogiFont"
       id="text3766">
      <path
         sodipodi:type="arc"
         style="font-size:46.93520736999999300px;font-style:normal;font-variant:normal;font-weight:normal;font-stretch:normal;line-height:125%;letter-spacing:0px;word-spacing:0px;fill:#d4e2ff;fill-opacity:1;stroke:none;font-family:YomogiFont;-inkscape-font-specification:YomogiFont"
         id="path3873-4"
         sodipodi:cx="414.64285"
         sodipodi:cy="146.78572"
         sodipodi:rx="51.07143"
         sodipodi:ry="51.07143"
         d="m 465.71428,146.78572 a 51.07143,51.07143 0 1 1 -102.14286,0 51.07143,51.07143 0 1 1 102.14286,0 z"
         transform="matrix(0.5874126,0,0,0.5874126,281.07642,661.49554)" />
      <path
         sodipodi:type="arc"
         style="fill:#ffd4e3;fill-opacity:1;stroke:none"
         id="path3871"
         sodipodi:cx="177.5"
         sodipodi:cy="308.92856"
         sodipodi:rx="28.928572"
         sodipodi:ry="28.928572"
         d="m 206.42857,308.92856 a 28.928572,28.928572 0 1 1 -57.85714,0 28.928572,28.928572 0 1 1 57.85714,0 z"
         transform="translate(5.7142854,633.79075)" />
      <path
         sodipodi:type="arc"
         style="fill:#d4f8ff;fill-opacity:1;stroke:none"
         id="path3873"
         sodipodi:cx="414.64285"
         sodipodi:cy="146.78572"
         sodipodi:rx="51.07143"
         sodipodi:ry="51.07143"
         d="m 465.71428,146.78572 a 51.07143,51.07143 0 1 1 -102.14286,0 51.07143,51.07143 0 1 1 102.14286,0 z"
         transform="translate(-7.8571426,523.79075)" />
      <path
         sodipodi:type="arc"
         style="fill:#f3d4ff;fill-opacity:1;stroke:none"
         id="path3875"
         sodipodi:cx="510.71429"
         sodipodi:cy="282.85715"
         sodipodi:rx="20"
         sodipodi:ry="20"
         d="m 530.71429,282.85715 a 20,20 0 1 1 -40,0 20,20 0 1 1 40,0 z"
         transform="translate(12.857143,638.79075)" />
      <path
         sodipodi:type="arc"
         style="fill:#cbff98;fill-opacity:1;stroke:none"
         id="path3877"
         sodipodi:cx="151.07143"
         sodipodi:cy="421.78571"
         sodipodi:rx="40.357143"
         sodipodi:ry="40.357143"
         d="m 191.42857,421.78571 a 40.357143,40.357143 0 1 1 -80.71429,0 40.357143,40.357143 0 1 1 80.71429,0 z"
         transform="translate(-60,450.21932)" />
      <g
         id="g3811"
         transform="matrix(1.2225403,0,0,1.2225403,-84.84441,-149.95361)">
        <path
           id="path3779"
           d="m 264.64979,746.68406 0.13751,11.96298 c 2.59732,0.48891 4.98838,0.51183 7.1732,0.0688 2.1848,-0.44307 3.62096,-1.43616 4.30851,-2.97928 0.68751,-1.54311 0.79445,-3.01747 0.32084,-4.4231 -0.47364,-1.40559 -1.18409,-2.4598 -2.13133,-3.16262 -0.94728,-0.70279 -2.31469,-1.11531 -4.10225,-1.23755 -1.78758,-0.12221 -3.68974,-0.1986 -5.70648,-0.22918 z m -0.0917,-15.49228 0.0458,12.87968 c 1.95562,0.1528 4.10223,0.18336 6.43984,0.0917 2.33758,-0.0917 4.18626,-0.4125 5.54605,-0.96254 1.35976,-0.55 2.29174,-1.30628 2.79595,-2.26884 0.50416,-0.96252 0.7257,-2.02436 0.66461,-3.18554 -0.0611,-1.16114 -0.49657,-2.32993 -1.30631,-3.50639 -0.80977,-1.17641 -2.10843,-2.05492 -3.89598,-2.63553 -1.78759,-0.58054 -3.63627,-0.87847 -5.54606,-0.89378 -1.90981,-0.0153 -3.49112,0.14518 -4.74394,0.48127 z m 10.26708,14.80476 c 0.39722,0.18335 0.9396,0.54239 1.62715,1.07712 0.68751,0.53476 1.35212,1.6348 1.99383,3.30013 0.64167,1.66536 0.58819,3.64391 -0.16043,5.93566 -0.74866,2.29176 -2.40636,3.74321 -4.97311,4.35434 -2.56678,0.61113 -4.78979,0.84795 -6.66902,0.71044 -1.87925,-0.1375 -3.15499,-0.49654 -3.82723,-1.07712 -0.18335,-1.40561 -0.28266,-4.96547 -0.29793,-10.6796 -0.0153,-5.71409 -0.0229,-12.32963 -0.0229,-19.84662 0.33612,-0.70277 1.07712,-1.08473 2.223,-1.14588 1.14588,-0.0611 2.72719,-0.0764 4.74394,-0.0458 2.01674,0.0306 4.08696,0.35908 6.21067,0.98546 2.12368,0.62645 3.74318,1.68829 4.85853,3.18554 1.1153,1.49731 1.70351,3.17793 1.76465,5.04187 0.0611,1.86399 -0.32851,3.42238 -1.1688,4.67519 -0.84033,1.25284 -1.81051,2.09316 -2.91053,2.52093 -1.10006,0.42781 -2.23066,0.76394 -3.3918,1.00838 z"
           inkscape:connector-curvature="0" />
        <path
           id="path3781"
           d="m 290.36332,740.90883 0.18334,8.25033 c 2.26119,-4.79739 6.15718,-7.13498 11.68797,-7.01278 0.73334,0.0306 1.10766,0.33615 1.12296,0.91671 0.0153,0.58059 -0.35906,0.932 -1.12296,1.0542 -5.28634,0.12225 -8.92259,2.64318 -10.90877,7.56281 -0.51948,1.43617 -0.80977,4.46129 -0.87087,9.07536 -1e-5,0.94726 -0.29794,1.45145 -0.89379,1.51256 -0.59586,0.0611 -0.98546,-0.3514 -1.16879,-1.23755 l -0.22918,-19.66329 c -0.0917,-1.10002 0.18334,-1.71115 0.82503,-1.8334 0.64169,-0.12221 1.10004,0.33614 1.37506,1.37505 z"
           inkscape:connector-curvature="0" />
        <path
           id="path3783"
           d="m 325.97724,750.9009 c 0.33611,-2.3223 -0.084,-4.28557 -1.26047,-5.88982 -1.17645,-1.60421 -2.56678,-2.52855 -4.171,-2.77303 -1.60424,-0.24443 -3.07096,-0.12984 -4.40017,0.34377 -1.32923,0.47365 -2.45219,1.45146 -3.36889,2.93345 -0.91671,1.48202 -1.35978,3.26195 -1.32922,5.33979 z m -14.80476,1.92508 c 0.30557,2.07786 0.97017,3.66681 1.99383,4.76685 1.02365,1.10005 2.60496,1.9098 4.74394,2.42927 2.13896,0.51946 4.446,0.38196 6.92111,-0.41252 0.82502,-0.24445 1.30628,-0.0764 1.44381,0.50419 0.13748,0.58058 -0.20628,1.05421 -1.03129,1.42089 -2.44456,0.85559 -4.83563,1.10768 -7.17321,0.75628 -2.3376,-0.35141 -4.31615,-1.31394 -5.93565,-2.88762 -1.61951,-1.57367 -2.52858,-3.76611 -2.72719,-6.57734 -0.19862,-2.81122 0.0458,-5.03422 0.73336,-6.66902 0.68752,-1.63477 1.58131,-2.91051 2.68136,-3.82724 1.10004,-0.91668 2.3223,-1.55073 3.66681,-1.90216 1.34449,-0.35138 2.63551,-0.43541 3.87307,-0.25209 1.23754,0.18336 2.40633,0.61116 3.50639,1.28338 1.10003,0.67227 1.96326,1.52022 2.58969,2.54386 0.62639,1.02367 1.08474,2.23066 1.37505,3.62097 0.29027,1.39035 0.34375,2.57442 0.16043,3.55223 -0.18336,0.97783 -0.64172,1.51257 -1.37506,1.60423 z"
           inkscape:connector-curvature="0" />
        <path
           id="path3785"
           d="m 349.44484,750.9009 c 0.33611,-2.3223 -0.084,-4.28557 -1.26046,-5.88982 -1.17646,-1.60421 -2.56679,-2.52855 -4.171,-2.77303 -1.60425,-0.24443 -3.07097,-0.12984 -4.40018,0.34377 -1.32923,0.47365 -2.45219,1.45146 -3.36889,2.93345 -0.9167,1.48202 -1.35978,3.26195 -1.32921,5.33979 z m -14.80476,1.92508 c 0.30557,2.07786 0.97018,3.66681 1.99383,4.76685 1.02365,1.10005 2.60496,1.9098 4.74394,2.42927 2.13896,0.51946 4.446,0.38196 6.92111,-0.41252 0.82502,-0.24445 1.30629,-0.0764 1.44381,0.50419 0.13749,0.58058 -0.20628,1.05421 -1.03129,1.42089 -2.44456,0.85559 -4.83562,1.10768 -7.1732,0.75628 -2.33761,-0.35141 -4.31616,-1.31394 -5.93566,-2.88762 -1.61951,-1.57367 -2.52857,-3.76611 -2.72719,-6.57734 -0.19862,-2.81122 0.0458,-5.03422 0.73336,-6.66902 0.68753,-1.63477 1.58131,-2.91051 2.68136,-3.82724 1.10004,-0.91668 2.32231,-1.55073 3.66681,-1.90216 1.34449,-0.35138 2.63551,-0.43541 3.87307,-0.25209 1.23754,0.18336 2.40633,0.61116 3.50639,1.28338 1.10003,0.67227 1.96326,1.52022 2.58969,2.54386 0.62639,1.02367 1.08475,2.23066 1.37506,3.62097 0.29026,1.39035 0.34374,2.57442 0.16042,3.55223 -0.18336,0.97783 -0.64171,1.51257 -1.37506,1.60423 z"
           inkscape:connector-curvature="0" />
        <path
           id="path3787"
           d="m 372.5916,752.50513 c 0.15277,-1.77228 -0.19864,-3.39179 -1.05421,-4.85853 -0.8556,-1.46671 -2.29177,-2.40633 -4.3085,-2.81886 -2.01676,-0.4125 -3.83489,-0.19096 -5.45439,0.66461 -1.61951,0.8556 -2.68136,2.414 -3.18554,4.67519 -0.50419,2.26121 -0.23682,4.34671 0.80211,6.2565 1.03893,1.9098 2.31467,3.06332 3.82724,3.46055 1.51255,0.39724 3.04039,0.38196 4.58352,-0.0458 1.5431,-0.4278 2.69662,-1.24519 3.46055,-2.45219 0.7639,-1.20698 1.20698,-2.83413 1.32922,-4.88144 z m 1.92508,-22.36756 c 0.21387,14.7895 0.15276,23.10093 -0.18334,24.93433 -0.33615,1.83341 -0.99312,3.36125 -1.97091,4.58351 -0.97784,1.22228 -2.24594,2.03203 -3.80432,2.42927 -1.55841,0.39724 -3.24667,0.45071 -5.06479,0.16042 -1.81813,-0.29029 -3.32305,-1.04657 -4.51476,-2.26884 -1.19172,-1.22227 -2.00911,-2.75774 -2.45218,-4.60643 -0.44308,-1.84868 -0.3896,-3.98765 0.16042,-6.41693 0.55002,-2.42924 1.88688,-4.24737 4.01058,-5.45438 2.12368,-1.20697 4.28557,-1.60421 6.48567,-1.19171 2.20007,0.41253 3.97237,1.29104 5.31688,2.63552 l 0,-14.89643 c -2e-5,-1.0389 0.33611,-1.58892 1.00837,-1.65007 0.67223,-0.0611 1.00836,0.5195 1.00838,1.74174 z"
           inkscape:connector-curvature="0" />
        <path
           id="path3789"
           d="m 413.56823,760.1596 c -0.12224,1.10005 -0.466,1.68826 -1.03129,1.76466 -0.56531,0.0764 -0.89379,-0.48127 -0.98545,-1.67299 l -0.0458,-29.28867 -7.97532,-0.1375 c -0.73336,0.27504 -1.10004,-0.0305 -1.10004,-0.91671 0,-0.88611 0.3514,-1.35974 1.05421,-1.42089 l 18.65491,0.22918 c 0.55,0.18337 0.84793,0.58061 0.89379,1.19171 0.0458,0.61117 -0.25212,0.99313 -0.89379,1.14588 l -8.47951,-0.0458 z"
           inkscape:connector-curvature="0" />
        <path
           id="path3801"
           d="m 437.12751,735.59195 c -1.13061,0.76395 -2.23829,0.78687 -3.32305,0.0688 -1.08477,-0.71806 -1.62716,-1.6806 -1.62715,-2.88762 -10e-6,-1.20696 0.46598,-2.10838 1.39797,-2.70427 0.93198,-0.59583 1.94799,-0.67986 3.04804,-0.2521 1.10003,0.42783 1.73409,1.31398 1.90216,2.65844 0.16805,1.34453 -0.29794,2.38346 -1.39797,3.11679 z"
           style="fill:#00aa00;fill-opacity:1"
           inkscape:connector-curvature="0" />
        <path
           id="path3791"
           d="m 436.11914,741.22968 0.18334,20.0758 c -0.24447,1.03893 -0.73338,1.52784 -1.46673,1.46673 -0.73337,-0.0611 -1.03894,-0.55003 -0.9167,-1.46673 l -0.18334,-20.02997 c 0.0305,-1.0389 0.42014,-1.53545 1.16879,-1.48964 0.74863,0.0459 1.15351,0.52713 1.21464,1.44381 z"
           inkscape:connector-curvature="0" />
        <path
           id="path3793"
           d="m 467.51622,742.32972 -8.52534,6.78361 8.02116,11.09211 c 0.39722,0.94726 0.31319,1.55839 -0.2521,1.8334 -0.56531,0.27501 -1.06186,0.15279 -1.48964,-0.36668 l -7.97532,-11.45879 -3.57514,2.88762 c -0.15279,2.29176 -0.0611,4.82797 0.27501,7.60863 -0.0306,0.94726 -0.32849,1.48201 -0.89378,1.60423 -0.56531,0.12223 -0.98546,-0.27501 -1.26047,-1.19171 -0.70281,-9.22814 -0.79448,-19.55632 -0.27501,-30.98457 0.18333,-0.85556 0.59585,-1.26807 1.23755,-1.23755 0.64168,0.0306 0.96253,0.50422 0.96254,1.42089 -0.18335,7.27254 -0.2903,13.96446 -0.32085,20.0758 l 12.97135,-10.26708 c 0.67223,-0.45832 1.1917,-0.37429 1.5584,0.2521 0.36666,0.62643 0.21387,1.27576 -0.45836,1.94799 z"
           inkscape:connector-curvature="0" />
        <path
           id="path3795"
           d="m 490.98383,742.32972 -8.52534,6.78361 8.02115,11.09211 c 0.39722,0.94726 0.31319,1.55839 -0.25209,1.8334 -0.56532,0.27501 -1.06187,0.15279 -1.48964,-0.36668 l -7.97532,-11.45879 -3.57514,2.88762 c -0.15279,2.29176 -0.0611,4.82797 0.27501,7.60863 -0.0306,0.94726 -0.32849,1.48201 -0.89379,1.60423 -0.5653,0.12223 -0.98546,-0.27501 -1.26047,-1.19171 -0.7028,-9.22814 -0.79447,-19.55632 -0.27501,-30.98457 0.18334,-0.85556 0.59586,-1.26807 1.23755,-1.23755 0.64169,0.0306 0.96254,0.50422 0.96254,1.42089 -0.18335,7.27254 -0.29029,13.96446 -0.32084,20.0758 l 12.97135,-10.26708 c 0.67223,-0.45832 1.19169,-0.37429 1.55839,0.2521 0.36666,0.62643 0.21388,1.27576 -0.45835,1.94799 z"
           inkscape:connector-curvature="0" />
        <path
           id="path3797"
           d="m 507.11781,753.33016 c -0.58059,-1.22226 -1.11533,-2.07785 -1.60423,-2.56677 -0.48892,-0.48889 -1.34451,-0.79446 -2.56677,-0.9167 -1.22228,-0.12221 -2.1619,0.12224 -2.81886,0.73336 -0.65698,0.61115 -1.09241,1.27576 -1.3063,1.99383 -0.21391,0.7181 -0.33613,1.62716 -0.36669,2.72719 -0.0306,1.10005 0.27501,2.08551 0.91671,2.95637 0.64168,0.87087 1.50491,1.3827 2.58968,1.53548 1.08476,0.15279 2.07022,0.0306 2.95637,-0.36668 0.88614,-0.39724 1.55839,-1.10004 2.01675,-2.10842 0.45834,-1.00837 0.51945,-2.33758 0.18334,-3.98766 z m -10.22124,-12.37549 c 0.9167,-1.34448 2.13897,-2.25354 3.66681,-2.72719 1.52783,-0.47361 3.07859,-0.53472 4.65227,-0.18335 1.57366,0.35143 2.89524,1.10007 3.96474,2.24593 1.06947,1.1459 1.76464,2.49803 2.0855,4.05641 0.32083,1.55841 0.26736,3.5446 -0.16042,5.95857 -0.42781,2.414 -0.80977,4.29324 -1.14588,5.63773 0.51945,1.31394 1.19934,2.20773 2.03966,2.68135 0.8403,0.47364 1.74172,0.69517 2.70428,0.66461 0.96252,-0.0305 1.41323,0.32849 1.35214,1.07713 -0.0611,0.74864 -0.68755,1.12296 -1.87924,1.12296 -1.19174,0 -2.26886,-0.3514 -3.23138,-1.05421 -0.96256,-0.7028 -1.62717,-1.35977 -1.99383,-1.97091 -0.67227,1.40561 -1.673,2.37579 -3.00221,2.91053 -1.32923,0.53475 -2.80359,0.69517 -4.42309,0.48127 -1.61951,-0.21389 -2.87998,-0.8785 -3.7814,-1.99383 -0.90143,-1.11532 -1.35978,-2.70427 -1.37506,-4.76685 -0.0153,-2.06258 0.61878,-3.83487 1.90216,-5.31688 1.28338,-1.48199 2.83414,-2.16188 4.65227,-2.03967 1.81812,0.12224 3.16262,0.59587 4.0335,1.42089 0.87085,0.82505 1.44379,1.94037 1.71882,3.34597 0.58056,-3.8807 0.73334,-6.39399 0.45835,-7.53989 -0.27503,-1.14586 -0.79449,-2.16951 -1.5584,-3.07095 -0.76393,-0.9014 -1.72647,-1.48962 -2.88761,-1.76466 -1.16117,-0.27498 -2.32997,-0.22915 -3.50639,0.13751 -1.17644,0.3667 -2.10079,1.06951 -2.77303,2.10842 -0.76392,0.48893 -1.30631,0.56532 -1.62715,0.22917 -0.32085,-0.3361 -0.28265,-0.88612 0.11459,-1.65006 z"
           inkscape:connector-curvature="0" />
      </g>
      <rect
         style="fill:none;stroke:#a7a7a7;stroke-width:3.83410692;stroke-linecap:round;stroke-linejoin:round;stroke-miterlimit:4;stroke-opacity:1;stroke-dasharray:11.50232116, 11.50232116;stroke-dashoffset:0"
         id="rect3803"
         width="616.16589"
         height="456.16589"
         x="11.917053"
         y="584.27924" />
    </g>
    <path
       sodipodi:type="arc"
       style="fill:#00aa00;fill-opacity:1;stroke:none"
       id="path2992"
       sodipodi:cx="76"
       sodipodi:cy="72.5"
       sodipodi:rx="56.5"
       sodipodi:ry="56.5"
       d="m 132.5,72.5 a 56.5,56.5 0 1 1 -113,0 56.5,56.5 0 1 1 113,0 z"
       transform="matrix(1.2262236,0,0,1.2262236,67.521296,625.60382)" />
    <g
       id="g3803"
       transform="matrix(2.0236992,0,0,2.0236992,-419.11909,-2103.4216)">
      <path
         sodipodi:nodetypes="csccsccccssssscccccsccsssss"
         inkscape:connector-curvature="0"
         d="m 282.95595,1367.197 c 0,0 2.07704,2.7458 3.55832,3.5069 1.56868,0.8059 5.21357,0.9006 5.21357,0.9006 l 0,0 m -5.16034,-5.5802 c -3.6666,0 -4.70884,1.9223 -6.70037,6.0485 l -9.77759,0 9.77759,2.4444 c 1.2222,2.4444 0.95065,4.6914 0.51853,6.605 -0.9135,2.7159 -1.73771,6.0555 -1.85172,9.1726 -0.0861,2.3545 0.13605,4.7795 0.88879,7.0121 0.50424,1.4955 1.51085,2.775 2.37026,4.0987 0.54429,0.8383 1.30623,1.537 1.76023,2.4275 0.58667,1.1507 1.04883,2.4011 1.20271,3.6835 0.6328,5.274 -1.2222,15.8886 -1.2222,15.8886 0.8148,-2.4445 1.62959,-4.8888 2.44439,-7.3332 0,1.6296 0,3.2591 0,4.8887 0.81481,-2.8517 0.7531,-4.4813 1.5679,-7.3331 0,3.6666 0.96293,6.5431 0.96293,10.2097 0.8148,-3.6666 -0.0121,-7.5966 0.44439,-11.3578 0.19234,-1.5848 0.18513,-2.9506 0.96293,-4.6914 1.58018,-3.6047 0.86423,-2.0741 3.2222,-6.0246 2.037,-3.6666 2.16597,-4.7819 2.54311,-7.3454 0.50955,-3.4636 0.24489,-7.0589 -0.43211,-10.4936 -0.57399,-2.912 -2.34579,-5.4838 -3.03708,-8.3702 -0.30894,-1.29 -0.42284,-2.8428 -0.48455,-3.9498 -0.10081,-1.8084 -1.49375,-5.5802 -5.16034,-5.5802 z"
         style="fill:#ffffff;fill-opacity:1;stroke:none;stroke-width:1px;marker-start:none"
         id="path3761" />
      <path
         inkscape:connector-curvature="0"
         id="path2985"
         d="m 291.39,1371.5247 c -1.77657,-0.093 -3.28574,-0.3201 -4.2347,-0.6359 -0.54276,-0.1806 -0.82535,-0.3336 -1.29634,-0.7017 -0.54014,-0.4222 -1.17202,-1.0433 -1.85799,-1.8264 -0.32159,-0.3672 -0.96155,-1.149 -0.96155,-1.1748 0,-0.019 0.2708,-0.2222 0.45372,-0.3394 0.81497,-0.5222 1.89363,-0.7786 3.15983,-0.751 0.31717,0.01 0.41794,0.015 0.68057,0.057 0.688,0.1099 1.33272,0.3766 1.8959,0.7841 0.87497,0.6333 1.59056,1.642 2.03546,2.8693 0.19228,0.5303 0.34359,1.1696 0.37895,1.6009 0.004,0.045 0.009,0.092 0.0116,0.1053 0.006,0.028 0.0199,0.027 -0.26549,0.012 z"
         style="fill:#ff0000;fill-opacity:1;stroke:#ff0000;stroke-width:0.12221991;stroke-opacity:1" />
    </g>
    <g
       id="g3901"
       transform="translate(9.2728271,2.0128262)">
      <rect
         ry="13.396584"
         y="851.39429"
         x="296"
         height="26.793167"
         width="168"
         id="rect3826"
         style="fill:#cbff98;fill-opacity:1;stroke:none" />
      <rect
         ry="17.445551"
         y="847.51807"
         x="291.72717"
         height="34.545643"
         width="176.54564"
         id="rect3824"
         style="fill:none;stroke:#a7a7a7;stroke-width:2;stroke-linecap:round;stroke-linejoin:round;stroke-miterlimit:4;stroke-opacity:1;stroke-dasharray:6, 6;stroke-dashoffset:5.2" />
      <text
         sodipodi:linespacing="125%"
         id="text3863"
         y="875.03113"
         x="344.98633"
         style="font-size:32px;font-style:normal;font-variant:normal;font-weight:normal;font-stretch:normal;line-height:125%;letter-spacing:0px;word-spacing:0px;fill:#000000;fill-opacity:1;stroke:none;font-family:YomogiFont;-inkscape-font-specification:YomogiFont"
         xml:space="preserve"><tspan
           style="font-size:28px"
           y="875.03113"
           x="344.98633"
           id="tspan3865"
           sodipodi:role="line">Start</tspan></text>
    </g>
    <g
       id="g3907"
       transform="translate(9.2728271,2.0128262)">
      <rect
         ry="13.396584"
         y="928.67993"
         x="296"
         height="26.793167"
         width="168"
         id="rect3826-1"
         style="fill:#ffd4e3;fill-opacity:1;stroke:none" />
      <rect
         ry="17.445551"
         y="924.80371"
         x="291.72717"
         height="34.545643"
         width="176.54564"
         id="rect3824-7"
         style="fill:none;stroke:#a7a7a7;stroke-width:2;stroke-linecap:round;stroke-linejoin:round;stroke-miterlimit:4;stroke-opacity:1;stroke-dasharray:6, 6;stroke-dashoffset:5.2" />
      <text
         sodipodi:linespacing="125%"
         id="text3867"
         y="950.2113"
         x="331.50586"
         style="font-size:32px;font-style:normal;font-variant:normal;font-weight:normal;font-stretch:normal;line-height:125%;letter-spacing:0px;word-spacing:0px;fill:#000000;fill-opacity:1;stroke:none;font-family:YomogiFont;-inkscape-font-specification:YomogiFont"
         xml:space="preserve"><tspan
           style="font-size:28px"
           y="950.2113"
           x="331.50586"
           id="tspan3869"
           sodipodi:role="line">Setting</tspan></text>
    </g>
  </g>
</svg>
