<?xml version="1.0" encoding="UTF-8" standalone="no"?>
<!-- Created with Inkscape (http://www.inkscape.org/) -->

<svg
   xmlns:dc="http://purl.org/dc/elements/1.1/"
   xmlns:cc="http://creativecommons.org/ns#"
   xmlns:rdf="http://www.w3.org/1999/02/22-rdf-syntax-ns#"
   xmlns:svg="http://www.w3.org/2000/svg"
   xmlns="http://www.w3.org/2000/svg"
   xmlns:sodipodi="http://sodipodi.sourceforge.net/DTD/sodipodi-0.dtd"
   xmlns:inkscape="http://www.inkscape.org/namespaces/inkscape"
   width="640"
   height="480"
   id="svg2"
   version="1.1"
   inkscape:version="0.48.2 r9819"
   sodipodi:docname="result-day.svg"
   inkscape:export-filename="D:\Users\makoto\Desktop\breed\result-day\result-day.png"
   inkscape:export-xdpi="90"
   inkscape:export-ydpi="90">
  <defs
     id="defs4" />
  <sodipodi:namedview
     id="base"
     pagecolor="#ffffff"
     bordercolor="#666666"
     borderopacity="1.0"
     inkscape:pageopacity="1"
     inkscape:pageshadow="2"
     inkscape:zoom="1.4"
     inkscape:cx="141.9058"
     inkscape:cy="248.91981"
     inkscape:document-units="px"
     inkscape:current-layer="layer1"
     showgrid="false"
     inkscape:window-width="1920"
     inkscape:window-height="1017"
     inkscape:window-x="-8"
     inkscape:window-y="-8"
     inkscape:window-maximized="1"
     showguides="true"
     inkscape:guide-bbox="true">
    <sodipodi:guide
       orientation="1,0"
       position="-217.85714,310.71429"
       id="guide3987" />
    <sodipodi:guide
       orientation="0,1"
       position="-248.92857,310.71429"
       id="guide3989" />
  </sodipodi:namedview>
  <metadata
     id="metadata7">
    <rdf:RDF>
      <cc:Work
         rdf:about="">
        <dc:format>image/svg+xml</dc:format>
        <dc:type
           rdf:resource="http://purl.org/dc/dcmitype/StillImage" />
        <dc:title></dc:title>
      </cc:Work>
    </rdf:RDF>
  </metadata>
  <g
     inkscape:label="レイヤー 1"
     inkscape:groupmode="layer"
     id="layer1"
     transform="translate(0,-572.36218)">
    <g
       style="font-size:46.93520737px;font-style:normal;font-variant:normal;font-weight:normal;font-stretch:normal;line-height:125%;letter-spacing:0px;word-spacing:0px;fill:#000000;fill-opacity:1;stroke:none;font-family:YomogiFont;-inkscape-font-specification:YomogiFont"
       id="text3766">
      <path
         sodipodi:type="arc"
         style="fill:#cbff98;fill-opacity:1;stroke:none"
         id="path3877"
         sodipodi:cx="151.07143"
         sodipodi:cy="421.78571"
         sodipodi:rx="40.357143"
         sodipodi:ry="40.357143"
         d="m 191.42857,421.78571 c 0,22.28863 -18.06851,40.35714 -40.35714,40.35714 -22.28864,0 -40.35715,-18.06851 -40.35715,-40.35714 0,-22.28864 18.06851,-40.35715 40.35715,-40.35715 22.28863,0 40.35714,18.06851 40.35714,40.35715 z"
         transform="translate(-11.428572,363.07646)" />
      <path
         sodipodi:type="arc"
         style="font-size:46.93520737px;font-style:normal;font-variant:normal;font-weight:normal;font-stretch:normal;line-height:125%;letter-spacing:0px;word-spacing:0px;fill:#d4e2ff;fill-opacity:1;stroke:none;font-family:YomogiFont;-inkscape-font-specification:YomogiFont"
         id="path3873-4"
         sodipodi:cx="414.64285"
         sodipodi:cy="146.78572"
         sodipodi:rx="51.07143"
         sodipodi:ry="51.07143"
         d="m 465.71428,146.78572 c 0,28.20597 -22.86546,51.07143 -51.07143,51.07143 -28.20597,0 -51.07143,-22.86546 -51.07143,-51.07143 0,-28.20597 22.86546,-51.071429 51.07143,-51.071429 28.20597,0 51.07143,22.865459 51.07143,51.071429 z"
         transform="matrix(0.5874126,0,0,0.5874126,246.7907,623.63839)" />
      <path
         sodipodi:type="arc"
         style="fill:#ffd4e3;fill-opacity:1;stroke:none"
         id="path3871"
         sodipodi:cx="177.5"
         sodipodi:cy="308.92856"
         sodipodi:rx="28.928572"
         sodipodi:ry="28.928572"
         d="m 206.42857,308.92856 c 0,15.97681 -12.95176,28.92857 -28.92857,28.92857 -15.97681,0 -28.92857,-12.95176 -28.92857,-28.92857 0,-15.97681 12.95176,-28.92857 28.92857,-28.92857 15.97681,0 28.92857,12.95176 28.92857,28.92857 z"
         transform="translate(188.57143,641.64789)" />
      <path
         sodipodi:type="arc"
         style="fill:#d4f8ff;fill-opacity:1;stroke:none"
         id="path3873"
         sodipodi:cx="414.64285"
         sodipodi:cy="146.78572"
         sodipodi:rx="51.07143"
         sodipodi:ry="51.07143"
         d="m 465.71428,146.78572 c 0,28.20597 -22.86546,51.07143 -51.07143,51.07143 -28.20597,0 -51.07143,-22.86546 -51.07143,-51.07143 0,-28.20597 22.86546,-51.071429 51.07143,-51.071429 28.20597,0 51.07143,22.865459 51.07143,51.071429 z"
         transform="translate(-134.28571,513.79075)" />
      <path
         sodipodi:type="arc"
         style="fill:#f3d4ff;fill-opacity:1;stroke:none"
         id="path3875"
         sodipodi:cx="510.71429"
         sodipodi:cy="282.85715"
         sodipodi:rx="20"
         sodipodi:ry="20"
         d="m 530.71429,282.85715 c 0,11.04569 -8.9543,20 -20,20 -11.04569,0 -20,-8.95431 -20,-20 0,-11.0457 8.95431,-20 20,-20 11.0457,0 20,8.9543 20,20 z"
         transform="translate(-55,647.36218)" />
      <path
         sodipodi:type="arc"
         style="font-size:46.93520737px;font-style:normal;font-variant:normal;font-weight:normal;font-stretch:normal;line-height:125%;letter-spacing:0px;word-spacing:0px;fill:#f1ff92;fill-opacity:1;stroke:none;font-family:YomogiFont;-inkscape-font-specification:YomogiFont"
         id="path3877-1"
         sodipodi:cx="151.07143"
         sodipodi:cy="421.78571"
         sodipodi:rx="40.357143"
         sodipodi:ry="40.357143"
         d="m 191.42857,421.78571 c 0,22.28863 -18.06851,40.35714 -40.35714,40.35714 -22.28864,0 -40.35715,-18.06851 -40.35715,-40.35714 0,-22.28864 18.06851,-40.35715 40.35715,-40.35715 22.28863,0 40.35714,18.06851 40.35714,40.35715 z"
         transform="matrix(0.63716815,0,0,0.63716815,234.09925,528.9709)" />
      <path
         sodipodi:type="arc"
         style="font-size:46.93520736999999300px;font-style:normal;font-variant:normal;font-weight:normal;font-stretch:normal;line-height:125%;letter-spacing:0px;word-spacing:0px;fill:#e4d4ff;fill-opacity:1;stroke:none;font-family:YomogiFont;-inkscape-font-specification:YomogiFont"
         id="path3873-4-7"
         sodipodi:cx="414.64285"
         sodipodi:cy="146.78572"
         sodipodi:rx="51.07143"
         sodipodi:ry="51.07143"
         d="m 465.71428,146.78572 c 0,28.20597 -22.86546,51.07143 -51.07143,51.07143 -28.20597,0 -51.07143,-22.86546 -51.07143,-51.07143 0,-28.20597 22.86546,-51.071429 51.07143,-51.071429 28.20597,0 51.07143,22.865459 51.07143,51.071429 z"
         transform="matrix(0.34265736,0,0,0.34265736,-20.294711,876.70783)" />
      <rect
         style="fill:#ffffff;stroke:#a7a7a7;stroke-width:3.83410692000000000;stroke-linecap:round;stroke-linejoin:round;stroke-miterlimit:4;stroke-opacity:1;stroke-dasharray:11.50232115999999900, 11.50232115999999900;stroke-dashoffset:0;fill-opacity:0.5235849"
         id="rect3803"
         width="616.16589"
         height="456.16589"
         x="11.917053"
         y="584.27924" />
    </g>
    <g
       id="g3932"
       transform="translate(-224.43178,-338.2922)">
      <rect
         ry="13.396584"
         y="998.4071"
         x="35.987103"
         height="26.793167"
         width="168"
         id="rect3826"
         style="fill:#cbff98;fill-opacity:1;stroke:none" />
      <rect
         ry="17.445551"
         y="994.53088"
         x="31.714283"
         height="34.545643"
         width="176.54564"
         id="rect3824"
         style="fill:none;stroke:#a7a7a7;stroke-width:2;stroke-linecap:round;stroke-linejoin:round;stroke-miterlimit:4;stroke-opacity:1;stroke-dasharray:6, 6;stroke-dashoffset:5.2" />
      <text
         sodipodi:linespacing="125%"
         id="text3863"
         y="1019.9111"
         x="63.959759"
         style="font-size:32px;font-style:normal;font-variant:normal;font-weight:normal;font-stretch:normal;line-height:125%;letter-spacing:0px;word-spacing:0px;fill:#000000;fill-opacity:1;stroke:none;font-family:YomogiFont;-inkscape-font-specification:YomogiFont"
         xml:space="preserve"><tspan
           style="font-size:28px"
           y="1019.9111"
           x="63.959759"
           id="tspan3865"
           sodipodi:role="line">Minigame</tspan></text>
    </g>
    <g
       id="g3041"
       transform="translate(4.9999996,18.571429)">
      <rect
         ry="13.396584"
         y="849.67987"
         x="53.857151"
         height="26.793167"
         width="168"
         id="rect3826-9"
         style="fill:#cbff98;fill-opacity:1;stroke:none" />
      <rect
         ry="17.445551"
         y="845.80365"
         x="49.584332"
         height="34.545643"
         width="176.54564"
         id="rect3824-4"
         style="fill:none;stroke:#a7a7a7;stroke-width:2;stroke-linecap:round;stroke-linejoin:round;stroke-miterlimit:4;stroke-opacity:1;stroke-dasharray:6, 6;stroke-dashoffset:5.2" />
      <text
         sodipodi:linespacing="125%"
         id="text3863-8"
         y="871.41632"
         x="82.157928"
         style="font-size:32px;font-style:normal;font-variant:normal;font-weight:normal;font-stretch:normal;line-height:125%;letter-spacing:0px;word-spacing:0px;fill:#000000;fill-opacity:1;stroke:none;font-family:YomogiFont;-inkscape-font-specification:YomogiFont"
         xml:space="preserve"><tspan
           style="font-size:28px"
           y="871.41632"
           x="82.157928"
           id="tspan3865-8"
           sodipodi:role="line">Next Day</tspan></text>
    </g>
    <g
       id="g3938"
       transform="translate(-420.14606,-384.56494)">
      <rect
         ry="13.396584"
         y="997.53699"
         x="227.42856"
         height="26.793167"
         width="168"
         id="rect3826-9-4"
         style="fill:#bec9ff;fill-opacity:1;stroke:none" />
      <rect
         ry="17.445551"
         y="993.66077"
         x="223.15575"
         height="34.545643"
         width="176.54564"
         id="rect3824-4-5"
         style="fill:none;stroke:#a7a7a7;stroke-width:2;stroke-linecap:round;stroke-linejoin:round;stroke-miterlimit:4;stroke-opacity:1;stroke-dasharray:6, 6;stroke-dashoffset:5.2" />
      <text
         sodipodi:linespacing="125%"
         id="text3863-8-5"
         y="1019.3008"
         x="276.67465"
         style="font-size:32px;font-style:normal;font-variant:normal;font-weight:normal;font-stretch:normal;line-height:125%;letter-spacing:0px;word-spacing:0px;fill:#000000;fill-opacity:1;stroke:none;font-family:YomogiFont;-inkscape-font-specification:YomogiFont"
         xml:space="preserve"><tspan
           style="font-size:28px"
           y="1019.3008"
           x="276.67465"
           id="tspan3865-8-1"
           sodipodi:role="line">Speak</tspan></text>
    </g>
    <g
       id="g3031"
       transform="translate(-636.28893,-431.42857)">
      <rect
         ry="13.396584"
         y="997.97205"
         x="422.70462"
         height="26.793167"
         width="168"
         id="rect3826-9-1"
         style="fill:#ffb3d3;fill-opacity:1;stroke:none" />
      <rect
         ry="17.445551"
         y="994.09583"
         x="418.43179"
         height="34.545643"
         width="176.54564"
         id="rect3824-4-1"
         style="fill:none;stroke:#a7a7a7;stroke-width:2;stroke-linecap:round;stroke-linejoin:round;stroke-miterlimit:4;stroke-opacity:1;stroke-dasharray:6, 6;stroke-dashoffset:5.2" />
      <text
         sodipodi:linespacing="125%"
         id="text3863-8-52"
         y="1021.4995"
         x="481.71243"
         style="font-size:32px;font-style:normal;font-variant:normal;font-weight:normal;font-stretch:normal;line-height:125%;letter-spacing:0px;word-spacing:0px;fill:#000000;fill-opacity:1;stroke:none;font-family:YomogiFont;-inkscape-font-specification:YomogiFont"
         xml:space="preserve"><tspan
           style="font-size:28px"
           y="1021.4995"
           x="481.71243"
           id="tspan3865-8-7"
           sodipodi:role="line">Meal</tspan></text>
    </g>
    <text
       xml:space="preserve"
       style="font-size:28px;font-style:normal;font-variant:normal;font-weight:normal;font-stretch:normal;line-height:125%;letter-spacing:0px;word-spacing:0px;fill:#000000;fill-opacity:1;stroke:none;font-family:YomogiFont;-inkscape-font-specification:YomogiFont"
       x="261.42856"
       y="798.07648"
       id="text3950"
       sodipodi:linespacing="125%"><tspan
         sodipodi:role="line"
         id="tspan3952"
         x="261.42856"
         y="798.07648">そだてはじめて？？にちめ</tspan></text>
    <text
       xml:space="preserve"
       style="font-size:28px;font-style:normal;font-variant:normal;font-weight:normal;font-stretch:normal;line-height:125%;letter-spacing:0px;word-spacing:0px;fill:#000000;fill-opacity:1;stroke:none;font-family:YomogiFont;-inkscape-font-specification:YomogiFont"
       x="349.80804"
       y="759.21783"
       id="text3960"
       sodipodi:linespacing="125%"><tspan
         sodipodi:role="line"
         id="tspan3962"
         x="349.80804"
         y="759.21783">～のTikka</tspan></text>
    <text
       xml:space="preserve"
       style="font-size:16px;font-style:normal;font-variant:normal;font-weight:normal;font-stretch:normal;line-height:125%;letter-spacing:0px;word-spacing:0px;fill:#000000;fill-opacity:1;stroke:none;font-family:YomogiFont;-inkscape-font-specification:YomogiFont"
       x="-186.42857"
       y="186.42857"
       id="text3964"
       sodipodi:linespacing="125%"
       transform="translate(0,572.36218)"><tspan
         sodipodi:role="line"
         id="tspan3966"
         x="-186.42857"
         y="186.42857" /></text>
    <path
       sodipodi:type="arc"
       style="fill:#00aa00;fill-opacity:1;stroke:none"
       id="path2992"
       sodipodi:cx="76"
       sodipodi:cy="72.5"
       sodipodi:rx="56.5"
       sodipodi:ry="56.5"
       d="m 132.5,72.5 a 56.5,56.5 0 1 1 -113,0 56.5,56.5 0 1 1 113,0 z"
       transform="matrix(1.3652881,0,0,1.3652881,40.52382,621.70897)" />
    <g
       id="g3803"
       transform="matrix(2.2532044,0,0,2.2532044,-501.30584,-2416.8118)">
      <path
         sodipodi:nodetypes="csccsccccssssscccccsccsssss"
         inkscape:connector-curvature="0"
         d="m 282.95595,1367.197 c 0,0 2.07704,2.7458 3.55832,3.5069 1.56868,0.8059 5.21357,0.9006 5.21357,0.9006 l 0,0 m -5.16034,-5.5802 c -3.6666,0 -4.70884,1.9223 -6.70037,6.0485 l -9.77759,0 9.77759,2.4444 c 1.2222,2.4444 0.95065,4.6914 0.51853,6.605 -0.9135,2.7159 -1.73771,6.0555 -1.85172,9.1726 -0.0861,2.3545 0.13605,4.7795 0.88879,7.0121 0.50424,1.4955 1.51085,2.775 2.37026,4.0987 0.54429,0.8383 1.30623,1.537 1.76023,2.4275 0.58667,1.1507 1.04883,2.4011 1.20271,3.6835 0.6328,5.274 -1.2222,15.8886 -1.2222,15.8886 0.8148,-2.4445 1.62959,-4.8888 2.44439,-7.3332 0,1.6296 0,3.2591 0,4.8887 0.81481,-2.8517 0.7531,-4.4813 1.5679,-7.3331 0,3.6666 0.96293,6.5431 0.96293,10.2097 0.8148,-3.6666 -0.0121,-7.5966 0.44439,-11.3578 0.19234,-1.5848 0.18513,-2.9506 0.96293,-4.6914 1.58018,-3.6047 0.86423,-2.0741 3.2222,-6.0246 2.037,-3.6666 2.16597,-4.7819 2.54311,-7.3454 0.50955,-3.4636 0.24489,-7.0589 -0.43211,-10.4936 -0.57399,-2.912 -2.34579,-5.4838 -3.03708,-8.3702 -0.30894,-1.29 -0.42284,-2.8428 -0.48455,-3.9498 -0.10081,-1.8084 -1.49375,-5.5802 -5.16034,-5.5802 z"
         style="fill:#ffffff;fill-opacity:1;stroke:none;stroke-width:1px;marker-start:none"
         id="path3761" />
      <path
         inkscape:connector-curvature="0"
         id="path2985"
         d="m 291.39,1371.5247 c -1.77657,-0.093 -3.28574,-0.3201 -4.2347,-0.6359 -0.54276,-0.1806 -0.82535,-0.3336 -1.29634,-0.7017 -0.54014,-0.4222 -1.17202,-1.0433 -1.85799,-1.8264 -0.32159,-0.3672 -0.96155,-1.149 -0.96155,-1.1748 0,-0.019 0.2708,-0.2222 0.45372,-0.3394 0.81497,-0.5222 1.89363,-0.7786 3.15983,-0.751 0.31717,0.01 0.41794,0.015 0.68057,0.057 0.688,0.1099 1.33272,0.3766 1.8959,0.7841 0.87497,0.6333 1.59056,1.642 2.03546,2.8693 0.19228,0.5303 0.34359,1.1696 0.37895,1.6009 0.004,0.045 0.009,0.092 0.0116,0.1053 0.006,0.028 0.0199,0.027 -0.26549,0.012 z"
         style="fill:#ff0000;fill-opacity:1;stroke:#ff0000;stroke-width:0.12221991;stroke-opacity:1" />
    </g>
    <rect
       style="fill:#40ff65;fill-opacity:0.10849053;stroke:#a7a7a7;stroke-width:1.91971588;stroke-linecap:round;stroke-miterlimit:4;stroke-opacity:1;stroke-dasharray:3.8394317, 3.8394317;stroke-dashoffset:0"
       id="rect3954"
       width="355.08026"
       height="144.366"
       x="244.95988"
       y="859.82202"
       ry="25.786814" />
  </g>
</svg>
