<?xml version="1.0" encoding="UTF-8" standalone="no"?>
<!-- Created with Inkscape (http://www.inkscape.org/) -->

<svg
   xmlns:dc="http://purl.org/dc/elements/1.1/"
   xmlns:cc="http://creativecommons.org/ns#"
   xmlns:rdf="http://www.w3.org/1999/02/22-rdf-syntax-ns#"
   xmlns:svg="http://www.w3.org/2000/svg"
   xmlns="http://www.w3.org/2000/svg"
   xmlns:sodipodi="http://sodipodi.sourceforge.net/DTD/sodipodi-0.dtd"
   xmlns:inkscape="http://www.inkscape.org/namespaces/inkscape"
   width="154.27756"
   height="154.27756"
   id="svg2"
   version="1.1"
   inkscape:version="0.48.2 r9819"
   sodipodi:docname="chick-1.svg"
   inkscape:export-filename="D:\Users\makoto\Desktop\breed\tikka\chick-1.png"
   inkscape:export-xdpi="90"
   inkscape:export-ydpi="90">
  <defs
     id="defs4" />
  <sodipodi:namedview
     id="base"
     pagecolor="#f0f0f0"
     bordercolor="#666666"
     borderopacity="1.0"
     inkscape:pageopacity="1"
     inkscape:pageshadow="2"
     inkscape:zoom="3.959798"
     inkscape:cx="-7.0513365"
     inkscape:cy="72.923945"
     inkscape:document-units="px"
     inkscape:current-layer="layer1"
     showgrid="false"
     inkscape:window-width="1920"
     inkscape:window-height="1017"
     inkscape:window-x="-8"
     inkscape:window-y="-8"
     inkscape:window-maximized="1"
     showguides="true"
     inkscape:guide-bbox="true"
     fit-margin-top="0"
     fit-margin-left="0"
     fit-margin-right="0"
     fit-margin-bottom="0">
    <sodipodi:guide
       orientation="1,0"
       position="-409.38046,195.71021"
       id="guide3987" />
    <sodipodi:guide
       orientation="0,1"
       position="-440.45189,195.71021"
       id="guide3989" />
  </sodipodi:namedview>
  <metadata
     id="metadata7">
    <rdf:RDF>
      <cc:Work
         rdf:about="">
        <dc:format>image/svg+xml</dc:format>
        <dc:type
           rdf:resource="http://purl.org/dc/dcmitype/StillImage" />
        <dc:title />
      </cc:Work>
    </rdf:RDF>
  </metadata>
  <g
     inkscape:label="レイヤー 1"
     inkscape:groupmode="layer"
     id="layer1"
     transform="translate(-191.52332,-783.08055)">
    <text
       xml:space="preserve"
       style="font-size:16px;font-style:normal;font-variant:normal;font-weight:normal;font-stretch:normal;line-height:125%;letter-spacing:0px;word-spacing:0px;fill:#000000;fill-opacity:1;stroke:none;font-family:YomogiFont;-inkscape-font-specification:YomogiFont"
       x="-186.42857"
       y="186.42857"
       id="text3964"
       sodipodi:linespacing="125%"
       transform="translate(0,572.36218)"><tspan
         sodipodi:role="line"
         id="tspan3966"
         x="-186.42857"
         y="186.42857" /></text>
    <path
       sodipodi:type="arc"
       style="fill:#00aa8b;fill-opacity:1;stroke:none"
       id="path2992"
       sodipodi:cx="76"
       sodipodi:cy="72.5"
       sodipodi:rx="56.5"
       sodipodi:ry="56.5"
       d="M 132.5,72.5 C 132.5,103.70409 107.20409,129 76,129 44.795912,129 19.5,103.70409 19.5,72.5 19.5,41.295912 44.795912,16 76,16 c 31.20409,0 56.5,25.295912 56.5,56.5 z"
       transform="matrix(1.3652881,0,0,1.3652881,164.9002,761.23594)" />
    <path
       style="fill:#ffd749;fill-opacity:1;stroke:none"
       d="m 233.18111,848.59443 22.40752,-0.85659 c 0,0 0.42403,-6.45104 2.33077,-10.85733 1.90674,-4.40629 5.20337,-6.19772 8.88842,-6.96585 3.97446,-0.82846 8.81777,0.2912 11.78973,3.05708 4.43593,4.12838 3.55383,11.60205 5.81349,17.22477 2.06548,5.13954 4.98412,9.90751 7.05909,15.04322 1.61461,3.99627 3.85926,7.93785 4.18022,12.23601 0.35056,4.69443 -0.0322,9.90391 -2.53013,13.89404 -3.65558,5.83938 -9.89866,10.95862 -16.67258,12.2139 -7.86537,1.45755 -16.69779,-1.58224 -23.15518,-6.30353 -3.52149,-2.57473 -5.96795,-6.77868 -7.10547,-10.99011 -1.48103,-5.48313 -0.64186,-11.52416 0.78886,-17.02066 1.38115,-5.30609 7.34621,-14.71711 7.34621,-14.71711 z"
       id="path3020"
       inkscape:connector-curvature="0"
       sodipodi:nodetypes="cczaaaaaaaaaacc" />
    <path
       style="fill:#ffffff;fill-opacity:1;stroke:none"
       d="m 275.85065,807.32266 c -14.62204,-2.10911 -33.19108,13.5135 -37.07422,30.24311 -0.0688,0.29745 -0.1141,0.59461 -0.17893,0.89257 l 5.78089,-2.28612 5.66234,5.77741 8.55227,-3.7096 5.63892,6.53013 7.32433,-3.78473 6.75378,6.85137 7.56694,-4.51795 3.99873,7.39853 5.95732,-3.96106 c 0.21372,-1.32095 0.41123,-2.62806 0.45882,-3.71954 0.48094,-11.02889 -5.81916,-33.605 -20.44119,-35.71412 z"
       id="path3007"
       inkscape:connector-curvature="0" />
  </g>
</svg>
