<?xml version="1.0" encoding="UTF-8" standalone="no"?>
<!-- Created with Inkscape (http://www.inkscape.org/) -->

<svg
   xmlns:dc="http://purl.org/dc/elements/1.1/"
   xmlns:cc="http://creativecommons.org/ns#"
   xmlns:rdf="http://www.w3.org/1999/02/22-rdf-syntax-ns#"
   xmlns:svg="http://www.w3.org/2000/svg"
   xmlns="http://www.w3.org/2000/svg"
   xmlns:xlink="http://www.w3.org/1999/xlink"
   xmlns:sodipodi="http://sodipodi.sourceforge.net/DTD/sodipodi-0.dtd"
   xmlns:inkscape="http://www.inkscape.org/namespaces/inkscape"
   width="640"
   height="480"
   id="svg3767"
   version="1.1"
   inkscape:version="0.48.2 r9819"
   sodipodi:docname="D:\Users\makoto\Desktop\breed\mini-game\mini-game.svg"
   inkscape:export-filename="D:\Users\makoto\Desktop\play-view.png"
   inkscape:export-xdpi="90"
   inkscape:export-ydpi="90">
  <defs
     id="defs3769">
    <linearGradient
       id="linearGradient3921">
      <stop
         style="stop-color:#82ff83;stop-opacity:1;"
         offset="0"
         id="stop3923" />
      <stop
         style="stop-color:#82ff83;stop-opacity:0;"
         offset="1"
         id="stop3925" />
    </linearGradient>
    <linearGradient
       id="linearGradient3865">
      <stop
         style="stop-color:#d7ffd5;stop-opacity:1;"
         offset="0"
         id="stop3867" />
      <stop
         style="stop-color:#d5f2ff;stop-opacity:0;"
         offset="1"
         id="stop3869" />
    </linearGradient>
    <linearGradient
       inkscape:collect="always"
       xlink:href="#linearGradient3865"
       id="linearGradient3873"
       x1="243.54974"
       y1="55.30724"
       x2="243.54974"
       y2="43.965702"
       gradientUnits="userSpaceOnUse" />
    <radialGradient
       inkscape:collect="always"
       xlink:href="#linearGradient3921"
       id="radialGradient3927"
       cx="320.5"
       cy="360.25"
       fx="320.5"
       fy="360.25"
       r="150"
       gradientTransform="matrix(2.1642807,0,0,0.025,-373.15197,351.24375)"
       gradientUnits="userSpaceOnUse" />
  </defs>
  <sodipodi:namedview
     id="base"
     pagecolor="#ffffff"
     bordercolor="#666666"
     borderopacity="1.0"
     inkscape:pageopacity="1"
     inkscape:pageshadow="2"
     inkscape:zoom="1.4142136"
     inkscape:cx="222.22726"
     inkscape:cy="352.43991"
     inkscape:document-units="px"
     inkscape:current-layer="layer1"
     showgrid="false"
     showguides="false"
     inkscape:guide-bbox="true"
     inkscape:snap-object-midpoints="true"
     inkscape:window-width="1366"
     inkscape:window-height="705"
     inkscape:window-x="-8"
     inkscape:window-y="-8"
     inkscape:window-maximized="1">
    <sodipodi:guide
       orientation="1,0"
       position="170,900.85404"
       id="guide3781" />
    <sodipodi:guide
       orientation="1,0"
       position="270,650.53824"
       id="guide3783" />
    <sodipodi:guide
       orientation="1,0"
       position="370,793.37381"
       id="guide3785" />
    <sodipodi:guide
       orientation="1,0"
       position="470,814.58701"
       id="guide3787" />
    <sodipodi:guide
       orientation="0,1"
       position="-49,15.5"
       id="guide3885" />
    <sodipodi:guide
       orientation="0,1"
       position="156.62415,465.98337"
       id="guide3887" />
    <sodipodi:guide
       orientation="0,1"
       position="187.02974,371.23106"
       id="guide3889" />
  </sodipodi:namedview>
  <metadata
     id="metadata3772">
    <rdf:RDF>
      <cc:Work
         rdf:about="">
        <dc:format>image/svg+xml</dc:format>
        <dc:type
           rdf:resource="http://purl.org/dc/dcmitype/StillImage" />
        <dc:title></dc:title>
      </cc:Work>
    </rdf:RDF>
  </metadata>
  <g
     inkscape:label="レイヤー 1"
     inkscape:groupmode="layer"
     id="layer1"
     transform="translate(0,-572.36215)">
    <path
       sodipodi:type="arc"
       style="fill:#cef0fb;fill-opacity:1;stroke:none;stroke-width:2.50000000000000000;stroke-linecap:round;stroke-linejoin:round;stroke-miterlimit:4;stroke-opacity:1;stroke-dasharray:none;stroke-dashoffset:0"
       id="path3891"
       sodipodi:cx="75.660423"
       sodipodi:cy="96.748123"
       sodipodi:rx="26.162951"
       sodipodi:ry="26.162951"
       d="m 101.82337,96.748123 c 0,14.449397 -11.713548,26.162947 -26.162947,26.162947 -14.449398,0 -26.16295,-11.71355 -26.16295,-26.162947 0,-14.449398 11.713552,-26.16295 26.16295,-26.16295 14.449399,0 26.162947,11.713552 26.162947,26.16295 z"
       transform="translate(0,572.36215)" />
    <path
       sodipodi:type="arc"
       style="fill:#ffd7d7;fill-opacity:1;stroke:none"
       id="path3893"
       sodipodi:cx="519.01636"
       sodipodi:cy="214.12785"
       sodipodi:rx="30.405592"
       sodipodi:ry="30.405592"
       d="m 549.42195,214.12785 c 0,16.79255 -13.61305,30.4056 -30.40559,30.4056 -16.79255,0 -30.40559,-13.61305 -30.40559,-30.4056 0,-16.79254 13.61304,-30.40559 30.40559,-30.40559 16.79254,0 30.40559,13.61305 30.40559,30.40559 z"
       transform="translate(13.435029,494.5804)" />
    <path
       sodipodi:type="arc"
       style="fill:#ffb8e4;fill-opacity:1;stroke:none;stroke-width:2.50000000000000000;stroke-linecap:round;stroke-linejoin:round;stroke-miterlimit:4;stroke-opacity:1;stroke-dasharray:2.50000000000000000, 5;stroke-dashoffset:0"
       id="path3895"
       sodipodi:cx="104.29825"
       sodipodi:cy="263.97888"
       sodipodi:rx="8.1317282"
       sodipodi:ry="8.1317282"
       d="m 112.42998,263.97888 c 0,4.49103 -3.6407,8.13173 -8.13173,8.13173 -4.491031,0 -8.13173,-3.6407 -8.13173,-8.13173 0,-4.49103 3.640699,-8.13173 8.13173,-8.13173 4.49103,0 8.13173,3.6407 8.13173,8.13173 z"
       transform="translate(0,572.36215)" />
    <path
       sodipodi:type="arc"
       style="fill:#f7ffdb;fill-opacity:1;stroke:none"
       id="path3897"
       sodipodi:cx="184.20132"
       sodipodi:cy="217.30983"
       sodipodi:rx="65.407379"
       sodipodi:ry="65.407379"
       d="m 249.6087,217.30983 c 0,36.1235 -29.28388,65.40738 -65.40738,65.40738 -36.12349,0 -65.40737,-29.28388 -65.40737,-65.40738 0,-36.1235 29.28388,-65.40738 65.40737,-65.40738 36.1235,0 65.40738,29.28388 65.40738,65.40738 z"
       transform="translate(301.81762,700.13312)" />
    <path
       transform="matrix(1.527027,0,0,1.527027,24.825185,603.04411)"
       sodipodi:type="arc"
       style="fill:#cefbf4;fill-opacity:1;stroke:none"
       id="path3891-3"
       sodipodi:cx="75.660423"
       sodipodi:cy="96.748123"
       sodipodi:rx="26.162951"
       sodipodi:ry="26.162951"
       d="m 101.82337,96.748123 c 0,14.449397 -11.713548,26.162947 -26.162947,26.162947 -14.449398,0 -26.16295,-11.71355 -26.16295,-26.162947 0,-14.449398 11.713552,-26.16295 26.16295,-26.16295 14.449399,0 26.162947,11.713552 26.162947,26.16295 z" />
    <rect
       style="fill:#ffffff;fill-opacity:0.39150944;stroke:none"
       id="rect3917"
       width="640"
       height="480"
       x="0"
       y="572.36218" />
    <rect
       y="584.27924"
       x="11.917053"
       height="456.16589"
       width="616.16589"
       id="rect3803"
       style="font-size:46.93520736999999300px;font-style:normal;font-variant:normal;font-weight:normal;font-stretch:normal;line-height:125%;letter-spacing:0px;word-spacing:0px;fill:none;stroke:#a7a7a7;stroke-width:3.83400011;stroke-linecap:round;stroke-linejoin:round;stroke-miterlimit:4;stroke-opacity:1;stroke-dasharray:7.66800022,7.66800022;stroke-dashoffset:0;font-family:YomogiFont;-inkscape-font-specification:YomogiFont" />
    <path
       sodipodi:type="arc"
       style="fill:url(#linearGradient3873);fill-opacity:1;stroke:#a7a7a7;stroke-width:1.58439720000000000;stroke-linecap:round;stroke-miterlimit:4;stroke-opacity:1;stroke-dasharray:3.16879429000000010, 3.16879429000000010;stroke-dashoffset:0"
       id="path3863"
       sodipodi:cx="247.5"
       sodipodi:cy="46.5"
       sodipodi:rx="97.5"
       sodipodi:ry="97.5"
       d="m 345,46.5 c 0,53.84776 -43.65224,97.5 -97.5,97.5 -53.84776,0 -97.5,-43.65224 -97.5,-97.5 0,-2e-6 0,-3e-6 0,-5e-6"
       transform="matrix(1.89594,0,0,0.98138559,-149.24515,540.74435)"
       sodipodi:start="0"
       sodipodi:end="3.1415927"
       sodipodi:open="true" />
    <path
       style="fill:none;stroke:#5f5f5f;stroke-width:2.5;stroke-linecap:round;stroke-linejoin:miter;stroke-miterlimit:4;stroke-opacity:1;stroke-dasharray:2.5,5;stroke-dashoffset:0"
       d="m 170,642.08607 0,394.77613"
       id="path3877"
       inkscape:connector-curvature="0" />
    <path
       style="fill:none;stroke:#5f5f5f;stroke-width:2.5;stroke-linecap:round;stroke-linejoin:miter;stroke-opacity:1;stroke-miterlimit:4;stroke-dasharray:2.5,5;stroke-dashoffset:0"
       d="m 270,681.13109 0,355.73111"
       id="path3879"
       inkscape:connector-curvature="0" />
    <path
       style="fill:none;stroke:#5f5f5f;stroke-width:2.5;stroke-linecap:round;stroke-linejoin:miter;stroke-opacity:1;stroke-miterlimit:4;stroke-dasharray:2.5,5;stroke-dashoffset:0"
       d="m 370,681.13109 0,355.73111"
       id="path3881"
       inkscape:connector-curvature="0" />
    <path
       style="fill:none;stroke:#5f5f5f;stroke-width:2.5;stroke-linecap:round;stroke-linejoin:miter;stroke-miterlimit:4;stroke-opacity:1;stroke-dasharray:2.5,5;stroke-dashoffset:0"
       d="m 470,642.79122 0,394.07098"
       id="path3883"
       inkscape:connector-curvature="0" />
    <rect
       style="fill:url(#radialGradient3927);fill-opacity:1;stroke:none;stroke-width:2.50000000000000000;stroke-linecap:round;stroke-linejoin:round;stroke-miterlimit:4;stroke-opacity:1;stroke-dasharray:none;stroke-dashoffset:0"
       id="rect3919"
       width="300"
       height="7.5"
       x="170.5"
       y="356.5"
       transform="translate(0,572.36215)" />
    <path
       sodipodi:type="arc"
       style="fill:#00aa00;fill-opacity:1;stroke:none"
       id="path2992"
       sodipodi:cx="76"
       sodipodi:cy="72.5"
       sodipodi:rx="56.5"
       sodipodi:ry="56.5"
       d="M 132.5,72.5 C 132.5,103.70409 107.20409,129 76,129 44.795912,129 19.5,103.70409 19.5,72.5 19.5,41.295912 44.795912,16 76,16 c 31.20409,0 56.5,25.295912 56.5,56.5 z"
       transform="matrix(0.76316252,0,0,0.76316252,28.973783,921.37244)" />
    <g
       id="g3803"
       transform="matrix(1.2594859,0,0,1.2594859,-273.8957,-777.08609)">
      <path
         sodipodi:nodetypes="csccsccccssssscccccsccsssss"
         inkscape:connector-curvature="0"
         d="m 282.95595,1367.197 c 0,0 2.07704,2.7458 3.55832,3.5069 1.56868,0.8059 5.21357,0.9006 5.21357,0.9006 l 0,0 m -5.16034,-5.5802 c -3.6666,0 -4.70884,1.9223 -6.70037,6.0485 l -9.77759,0 9.77759,2.4444 c 1.2222,2.4444 0.95065,4.6914 0.51853,6.605 -0.9135,2.7159 -1.73771,6.0555 -1.85172,9.1726 -0.0861,2.3545 0.13605,4.7795 0.88879,7.0121 0.50424,1.4955 1.51085,2.775 2.37026,4.0987 0.54429,0.8383 1.30623,1.537 1.76023,2.4275 0.58667,1.1507 1.04883,2.4011 1.20271,3.6835 0.6328,5.274 -1.2222,15.8886 -1.2222,15.8886 0.8148,-2.4445 1.62959,-4.8888 2.44439,-7.3332 0,1.6296 0,3.2591 0,4.8887 0.81481,-2.8517 0.7531,-4.4813 1.5679,-7.3331 0,3.6666 0.96293,6.5431 0.96293,10.2097 0.8148,-3.6666 -0.0121,-7.5966 0.44439,-11.3578 0.19234,-1.5848 0.18513,-2.9506 0.96293,-4.6914 1.58018,-3.6047 0.86423,-2.0741 3.2222,-6.0246 2.037,-3.6666 2.16597,-4.7819 2.54311,-7.3454 0.50955,-3.4636 0.24489,-7.0589 -0.43211,-10.4936 -0.57399,-2.912 -2.34579,-5.4838 -3.03708,-8.3702 -0.30894,-1.29 -0.42284,-2.8428 -0.48455,-3.9498 -0.10081,-1.8084 -1.49375,-5.5802 -5.16034,-5.5802 z"
         style="fill:#ffffff;fill-opacity:1;stroke:none;stroke-width:1px;marker-start:none"
         id="path3761" />
      <path
         inkscape:connector-curvature="0"
         id="path2985"
         d="m 291.39,1371.5247 c -1.77657,-0.093 -3.28574,-0.3201 -4.2347,-0.6359 -0.54276,-0.1806 -0.82535,-0.3336 -1.29634,-0.7017 -0.54014,-0.4222 -1.17202,-1.0433 -1.85799,-1.8264 -0.32159,-0.3672 -0.96155,-1.149 -0.96155,-1.1748 0,-0.019 0.2708,-0.2222 0.45372,-0.3394 0.81497,-0.5222 1.89363,-0.7786 3.15983,-0.751 0.31717,0.01 0.41794,0.015 0.68057,0.057 0.688,0.1099 1.33272,0.3766 1.8959,0.7841 0.87497,0.6333 1.59056,1.642 2.03546,2.8693 0.19228,0.5303 0.34359,1.1696 0.37895,1.6009 0.004,0.045 0.009,0.092 0.0116,0.1053 0.006,0.028 0.0199,0.027 -0.26549,0.012 z"
         style="fill:#ff0000;fill-opacity:1;stroke:#ff0000;stroke-width:0.12221991;stroke-opacity:1" />
    </g>
    <path
       sodipodi:type="arc"
       style="fill:#ffdfec;fill-opacity:1;stroke:none"
       id="path3948"
       sodipodi:cx="216.72823"
       sodipodi:cy="422.37079"
       sodipodi:rx="33.587574"
       sodipodi:ry="33.587574"
       d="m 250.3158,422.37079 c 0,18.5499 -15.03767,33.58757 -33.58757,33.58757 -18.54991,0 -33.58758,-15.03767 -33.58758,-33.58757 0,-18.54991 15.03767,-33.58758 33.58758,-33.58758 18.5499,0 33.58757,15.03767 33.58757,33.58758 z"
       transform="translate(4.9497475,563.96526)" />
    <path
       transform="translate(103.59115,563.96526)"
       sodipodi:type="arc"
       style="fill:#e9ffd7;fill-opacity:1;stroke:none"
       id="path3948-1"
       sodipodi:cx="216.72823"
       sodipodi:cy="422.37079"
       sodipodi:rx="33.587574"
       sodipodi:ry="33.587574"
       d="m 250.3158,422.37079 c 0,18.5499 -15.03767,33.58757 -33.58757,33.58757 -18.54991,0 -33.58758,-15.03767 -33.58758,-33.58757 0,-18.54991 15.03767,-33.58758 33.58758,-33.58758 18.5499,0 33.58757,15.03767 33.58757,33.58758 z" />
    <path
       transform="translate(202.93965,563.96526)"
       sodipodi:type="arc"
       style="fill:#d3f3ff;fill-opacity:1;stroke:none"
       id="path3948-6"
       sodipodi:cx="216.72823"
       sodipodi:cy="422.37079"
       sodipodi:rx="33.587574"
       sodipodi:ry="33.587574"
       d="m 250.3158,422.37079 c 0,18.5499 -15.03767,33.58757 -33.58757,33.58757 -18.54991,0 -33.58758,-15.03767 -33.58758,-33.58757 0,-18.54991 15.03767,-33.58758 33.58758,-33.58758 18.5499,0 33.58757,15.03767 33.58757,33.58758 z" />
    <text
       xml:space="preserve"
       style="font-size:32px;font-style:normal;font-variant:normal;font-weight:normal;font-stretch:normal;line-height:125%;letter-spacing:0px;word-spacing:0px;fill:#000000;fill-opacity:1;stroke:none;font-family:YomogiFont;-inkscape-font-specification:YomogiFont"
       x="213.80298"
       y="998.27356"
       id="text3978"
       sodipodi:linespacing="125%"><tspan
         sodipodi:role="line"
         id="tspan3980"
         x="213.80298"
         y="998.27356">G</tspan></text>
    <text
       xml:space="preserve"
       style="font-size:32px;font-style:normal;font-variant:normal;font-weight:normal;font-stretch:normal;line-height:125%;letter-spacing:0px;word-spacing:0px;fill:#000000;fill-opacity:1;stroke:none;font-family:YomogiFont;-inkscape-font-specification:YomogiFont"
       x="312.33499"
       y="998.14856"
       id="text3982"
       sodipodi:linespacing="125%"><tspan
         sodipodi:role="line"
         id="tspan3984"
         x="312.33499"
         y="998.14856">H</tspan></text>
    <text
       xml:space="preserve"
       style="font-size:32px;font-style:normal;font-variant:normal;font-weight:normal;font-stretch:normal;line-height:125%;letter-spacing:0px;word-spacing:0px;fill:#000000;fill-opacity:1;stroke:none;font-family:YomogiFont;-inkscape-font-specification:YomogiFont"
       x="411.246"
       y="997.61731"
       id="text3986"
       sodipodi:linespacing="125%"><tspan
         sodipodi:role="line"
         id="tspan3988"
         x="411.246"
         y="997.61731">J</tspan></text>
  </g>
</svg>
