<?xml version="1.0" encoding="UTF-8" standalone="no"?>
<!-- Created with Inkscape (http://www.inkscape.org/) -->

<svg
   xmlns:dc="http://purl.org/dc/elements/1.1/"
   xmlns:cc="http://creativecommons.org/ns#"
   xmlns:rdf="http://www.w3.org/1999/02/22-rdf-syntax-ns#"
   xmlns:svg="http://www.w3.org/2000/svg"
   xmlns="http://www.w3.org/2000/svg"
   xmlns:sodipodi="http://sodipodi.sourceforge.net/DTD/sodipodi-0.dtd"
   xmlns:inkscape="http://www.inkscape.org/namespaces/inkscape"
   width="154.27756"
   height="154.27756"
   id="svg2"
   version="1.1"
   inkscape:version="0.48.2 r9819"
   sodipodi:docname="adult.svg"
   inkscape:export-filename="D:\Users\makoto\Desktop\breed\tikka\adult.png"
   inkscape:export-xdpi="90"
   inkscape:export-ydpi="90">
  <defs
     id="defs4" />
  <sodipodi:namedview
     id="base"
     pagecolor="#f0f0f0"
     bordercolor="#666666"
     borderopacity="1.0"
     inkscape:pageopacity="1"
     inkscape:pageshadow="2"
     inkscape:zoom="1.4"
     inkscape:cx="35.739622"
     inkscape:cy="221.27195"
     inkscape:document-units="px"
     inkscape:current-layer="layer1"
     showgrid="false"
     inkscape:window-width="1920"
     inkscape:window-height="1017"
     inkscape:window-x="-8"
     inkscape:window-y="-8"
     inkscape:window-maximized="1"
     showguides="true"
     inkscape:guide-bbox="true"
     fit-margin-top="0"
     fit-margin-left="0"
     fit-margin-right="0"
     fit-margin-bottom="0">
    <sodipodi:guide
       orientation="1,0"
       position="-409.38046,195.71021"
       id="guide3987" />
    <sodipodi:guide
       orientation="0,1"
       position="-440.45189,195.71021"
       id="guide3989" />
  </sodipodi:namedview>
  <metadata
     id="metadata7">
    <rdf:RDF>
      <cc:Work
         rdf:about="">
        <dc:format>image/svg+xml</dc:format>
        <dc:type
           rdf:resource="http://purl.org/dc/dcmitype/StillImage" />
        <dc:title />
      </cc:Work>
    </rdf:RDF>
  </metadata>
  <g
     inkscape:label="レイヤー 1"
     inkscape:groupmode="layer"
     id="layer1"
     transform="translate(-191.52332,-783.08055)">
    <text
       xml:space="preserve"
       style="font-size:16px;font-style:normal;font-variant:normal;font-weight:normal;font-stretch:normal;line-height:125%;letter-spacing:0px;word-spacing:0px;fill:#000000;fill-opacity:1;stroke:none;font-family:YomogiFont;-inkscape-font-specification:YomogiFont"
       x="-186.42857"
       y="186.42857"
       id="text3964"
       sodipodi:linespacing="125%"
       transform="translate(0,572.36218)"><tspan
         sodipodi:role="line"
         id="tspan3966"
         x="-186.42857"
         y="186.42857" /></text>
    <path
       sodipodi:type="arc"
       style="fill:#00aa00;fill-opacity:1;stroke:none"
       id="path2992"
       sodipodi:cx="76"
       sodipodi:cy="72.5"
       sodipodi:rx="56.5"
       sodipodi:ry="56.5"
       d="M 132.5,72.5 C 132.5,103.70409 107.20409,129 76,129 44.795912,129 19.5,103.70409 19.5,72.5 19.5,41.295912 44.795912,16 76,16 c 31.20409,0 56.5,25.295912 56.5,56.5 z"
       transform="matrix(1.3652881,0,0,1.3652881,164.9002,761.23594)" />
    <g
       id="g3803"
       transform="matrix(2.2532044,0,0,2.2532044,-376.92946,-2277.2848)">
      <path
         sodipodi:nodetypes="csccsccccssssscccccsccsssss"
         inkscape:connector-curvature="0"
         d="m 282.95595,1367.197 c 0,0 2.07704,2.7458 3.55832,3.5069 1.56868,0.8059 5.21357,0.9006 5.21357,0.9006 l 0,0 m -5.16034,-5.5802 c -3.6666,0 -4.70884,1.9223 -6.70037,6.0485 l -9.77759,0 9.77759,2.4444 c 1.2222,2.4444 0.95065,4.6914 0.51853,6.605 -0.9135,2.7159 -1.73771,6.0555 -1.85172,9.1726 -0.0861,2.3545 0.13605,4.7795 0.88879,7.0121 0.50424,1.4955 1.51085,2.775 2.37026,4.0987 0.54429,0.8383 1.30623,1.537 1.76023,2.4275 0.58667,1.1507 1.04883,2.4011 1.20271,3.6835 0.6328,5.274 -1.2222,15.8886 -1.2222,15.8886 0.8148,-2.4445 1.62959,-4.8888 2.44439,-7.3332 0,1.6296 0,3.2591 0,4.8887 0.81481,-2.8517 0.7531,-4.4813 1.5679,-7.3331 0,3.6666 0.96293,6.5431 0.96293,10.2097 0.8148,-3.6666 -0.0121,-7.5966 0.44439,-11.3578 0.19234,-1.5848 0.18513,-2.9506 0.96293,-4.6914 1.58018,-3.6047 0.86423,-2.0741 3.2222,-6.0246 2.037,-3.6666 2.16597,-4.7819 2.54311,-7.3454 0.50955,-3.4636 0.24489,-7.0589 -0.43211,-10.4936 -0.57399,-2.912 -2.34579,-5.4838 -3.03708,-8.3702 -0.30894,-1.29 -0.42284,-2.8428 -0.48455,-3.9498 -0.10081,-1.8084 -1.49375,-5.5802 -5.16034,-5.5802 z"
         style="fill:#ffffff;fill-opacity:1;stroke:none;stroke-width:1px;marker-start:none"
         id="path3761" />
      <path
         inkscape:connector-curvature="0"
         id="path2985"
         d="m 291.39,1371.5247 c -1.77657,-0.093 -3.28574,-0.3201 -4.2347,-0.6359 -0.54276,-0.1806 -0.82535,-0.3336 -1.29634,-0.7017 -0.54014,-0.4222 -1.17202,-1.0433 -1.85799,-1.8264 -0.32159,-0.3672 -0.96155,-1.149 -0.96155,-1.1748 0,-0.019 0.2708,-0.2222 0.45372,-0.3394 0.81497,-0.5222 1.89363,-0.7786 3.15983,-0.751 0.31717,0.01 0.41794,0.015 0.68057,0.057 0.688,0.1099 1.33272,0.3766 1.8959,0.7841 0.87497,0.6333 1.59056,1.642 2.03546,2.8693 0.19228,0.5303 0.34359,1.1696 0.37895,1.6009 0.004,0.045 0.009,0.092 0.0116,0.1053 0.006,0.028 0.0199,0.027 -0.26549,0.012 z"
         style="fill:#ff0000;fill-opacity:1;stroke:#ff0000;stroke-width:0.12221991;stroke-opacity:1" />
    </g>
  </g>
</svg>
