<?xml version="1.0" encoding="UTF-8" standalone="no"?>
<!-- Created with Inkscape (http://www.inkscape.org/) -->

<svg
   xmlns:dc="http://purl.org/dc/elements/1.1/"
   xmlns:cc="http://creativecommons.org/ns#"
   xmlns:rdf="http://www.w3.org/1999/02/22-rdf-syntax-ns#"
   xmlns:svg="http://www.w3.org/2000/svg"
   xmlns="http://www.w3.org/2000/svg"
   xmlns:sodipodi="http://sodipodi.sourceforge.net/DTD/sodipodi-0.dtd"
   xmlns:inkscape="http://www.inkscape.org/namespaces/inkscape"
   width="154.27756"
   height="154.27756"
   id="svg2"
   version="1.1"
   inkscape:version="0.48.2 r9819"
   sodipodi:docname="chick-2.svg"
   inkscape:export-filename="D:\Users\makoto\Desktop\breed\tikka\chick-2.png"
   inkscape:export-xdpi="90"
   inkscape:export-ydpi="90">
  <defs
     id="defs4" />
  <sodipodi:namedview
     id="base"
     pagecolor="#f0f0f0"
     bordercolor="#666666"
     borderopacity="1.0"
     inkscape:pageopacity="1"
     inkscape:pageshadow="2"
     inkscape:zoom="5.6568543"
     inkscape:cx="17.344379"
     inkscape:cy="77.980959"
     inkscape:document-units="px"
     inkscape:current-layer="layer1"
     showgrid="false"
     inkscape:window-width="1920"
     inkscape:window-height="1017"
     inkscape:window-x="-8"
     inkscape:window-y="-8"
     inkscape:window-maximized="1"
     showguides="true"
     inkscape:guide-bbox="true"
     fit-margin-top="0"
     fit-margin-left="0"
     fit-margin-right="0"
     fit-margin-bottom="0">
    <sodipodi:guide
       orientation="1,0"
       position="-409.38046,195.71021"
       id="guide3987" />
    <sodipodi:guide
       orientation="0,1"
       position="-440.45189,195.71021"
       id="guide3989" />
  </sodipodi:namedview>
  <metadata
     id="metadata7">
    <rdf:RDF>
      <cc:Work
         rdf:about="">
        <dc:format>image/svg+xml</dc:format>
        <dc:type
           rdf:resource="http://purl.org/dc/dcmitype/StillImage" />
        <dc:title />
      </cc:Work>
    </rdf:RDF>
  </metadata>
  <g
     inkscape:label="レイヤー 1"
     inkscape:groupmode="layer"
     id="layer1"
     transform="translate(-191.52332,-783.08055)">
    <text
       xml:space="preserve"
       style="font-size:16px;font-style:normal;font-variant:normal;font-weight:normal;font-stretch:normal;line-height:125%;letter-spacing:0px;word-spacing:0px;fill:#000000;fill-opacity:1;stroke:none;font-family:YomogiFont;-inkscape-font-specification:YomogiFont"
       x="-186.42857"
       y="186.42857"
       id="text3964"
       sodipodi:linespacing="125%"
       transform="translate(0,572.36218)"><tspan
         sodipodi:role="line"
         id="tspan3966"
         x="-186.42857"
         y="186.42857" /></text>
    <path
       sodipodi:type="arc"
       style="fill:#0086aa;fill-opacity:1;stroke:none"
       id="path2992"
       sodipodi:cx="76"
       sodipodi:cy="72.5"
       sodipodi:rx="56.5"
       sodipodi:ry="56.5"
       d="M 132.5,72.5 C 132.5,103.70409 107.20409,129 76,129 44.795912,129 19.5,103.70409 19.5,72.5 19.5,41.295912 44.795912,16 76,16 c 31.20409,0 56.5,25.295912 56.5,56.5 z"
       transform="matrix(1.3652881,0,0,1.3652881,164.9002,761.23594)"
       inkscape:export-filename="D:\Users\makoto\Desktop\breed\tikka\chick-2.png"
       inkscape:export-xdpi="90"
       inkscape:export-ydpi="90" />
    <path
       style="fill:#ffffff;fill-opacity:1;stroke:none"
       d="M 91 58.96875 L 90.90625 58.9375 C 90.90625 58.9375 90.01625 58.771564 88.59375 58.375 C 87.17125 57.978436 85.216014 57.360525 83.15625 56.46875 C 82.126368 56.022862 81.073216 55.494437 80.03125 54.90625 C 78.989284 54.318063 77.955896 53.680317 77 52.9375 C 76.044104 52.194683 75.177922 51.347279 74.40625 50.4375 C 73.677932 49.578834 73.072983 48.64307 72.59375 47.625 C 72.585172 47.628451 72.57107 47.621531 72.5625 47.625 C 70.002287 48.661312 67.831534 50.518808 66.40625 53.8125 C 64.49951 58.21879 64.0625 64.65625 64.0625 64.65625 L 41.65625 65.5 L 62.8125 71.46875 C 62.8125 71.46875 56.81865 80.88141 55.4375 86.1875 C 54.00678 91.684 53.17522 97.73562 54.65625 103.21875 C 55.79377 107.43018 58.25976 111.61277 61.78125 114.1875 C 68.23864 118.90879 77.07213 121.95755 84.9375 120.5 C 91.71142 119.24472 97.93817 114.12063 101.59375 108.28125 C 104.09168 104.29112 104.47556 99.10068 104.125 94.40625 C 103.80404 90.10809 101.55211 86.15252 99.9375 82.15625 C 97.86253 77.02054 94.94048 72.26454 92.875 67.125 C 91.869491 64.622988 91.506711 61.745929 91 58.96875 z "
       id="path3765"
       transform="translate(191.52332,783.08055)" />
    <path
       style="fill:#ff0000;fill-opacity:1;stroke:none"
       d="M 78.375 46.5625 C 77.315594 46.530817 76.274865 46.636635 75.28125 46.84375 C 74.359988 47.035783 73.450812 47.280187 72.59375 47.625 C 73.072983 48.64307 73.677932 49.578834 74.40625 50.4375 C 75.177922 51.347279 76.044104 52.194683 77 52.9375 C 77.955896 53.680317 78.989284 54.318063 80.03125 54.90625 C 81.073216 55.494437 82.126368 56.022862 83.15625 56.46875 C 85.216014 57.360525 87.17125 57.978436 88.59375 58.375 C 90.01625 58.771564 90.90625 58.9375 90.90625 58.9375 L 91 58.96875 C 90.36799 55.504833 89.524518 52.197573 87.0625 49.90625 C 84.83353 47.83184 81.553217 46.657548 78.375 46.5625 z "
       id="path3020"
       transform="translate(191.52332,783.08055)" />
  </g>
</svg>
